HIERARCHY
ROOT Hips
{
	OFFSET 0.000000 0.000000 0.000000
	CHANNELS 6 Xposition Yposition Zposition Xrotation Yrotation Zrotation
	JOINT LeftUpLeg_virtual
	{
		OFFSET 0.000000 0.000000 0.000000
		CHANNELS 3 Xrotation Yrotation Zrotation
		JOINT LeftUpLeg
		{
			OFFSET 15.427100 -6.655098 0.678600
			CHANNELS 3 Xrotation Yrotation Zrotation
			JOINT LeftLeg
			{
				OFFSET 4.081073 -39.591068 13.024000
				CHANNELS 3 Xrotation Yrotation Zrotation
				JOINT LeftFoot
				{
					OFFSET -4.081074 -37.707932 -15.979700
					CHANNELS 3 Xrotation Yrotation Zrotation
					JOINT LeftToeBase
					{
						OFFSET 5.346399 -15.068900 20.645000
						CHANNELS 3 Xrotation Yrotation Zrotation
						JOINT LeftToe_End
						{
							OFFSET 2.754700 0.931300 11.300900
							CHANNELS 3 Xrotation Yrotation Zrotation
							End Site
							{
								OFFSET 0 0 0
							}
						}
					}
				}
			}
		}
	}
	JOINT RightUpLeg_virtual
	{
		OFFSET 0.000000 0.000000 0.000000
		CHANNELS 3 Xrotation Yrotation Zrotation
		JOINT RightUpLeg
		{
			OFFSET -15.569500 -6.655098 0.678600
			CHANNELS 3 Xrotation Yrotation Zrotation
			JOINT RightLeg
			{
				OFFSET -4.081825 -39.591045 13.023800
				CHANNELS 3 Xrotation Yrotation Zrotation
				JOINT RightFoot
				{
					OFFSET 4.081824 -37.707954 -15.979600
					CHANNELS 3 Xrotation Yrotation Zrotation
					JOINT RightToeBase
					{
						OFFSET -5.346400 -15.068900 20.645000
						CHANNELS 3 Xrotation Yrotation Zrotation
						JOINT RightToe_End
						{
							OFFSET -2.754700 0.931300 11.300900
							CHANNELS 3 Xrotation Yrotation Zrotation
							End Site
							{
								OFFSET 0 0 0
							}
						}
					}
				}
			}
		}
	}
	JOINT Spine_virtual
	{
		OFFSET 0.000000 0.000000 0.000000
		CHANNELS 3 Xrotation Yrotation Zrotation
		JOINT Spine
		{
			OFFSET -0.279200 12.230698 -2.892100
			CHANNELS 3 Xrotation Yrotation Zrotation
			JOINT Spine1
			{
				OFFSET -0.232667 10.192268 -1.242267
				CHANNELS 3 Xrotation Yrotation Zrotation
				JOINT Spine1_split
				{
					OFFSET -0.232667 10.192268 -1.242267
					CHANNELS 3 Xrotation Yrotation Zrotation
					JOINT Spine2
					{
						OFFSET -0.232667 10.192268 -1.242267
						CHANNELS 3 Xrotation Yrotation Zrotation
						JOINT Neck_virtual
						{
							OFFSET 0.000000 0.000000 0.000000
							CHANNELS 3 Xrotation Yrotation Zrotation
							JOINT Neck
							{
								OFFSET -0.418800 17.814194 8.416900
								CHANNELS 3 Xrotation Yrotation Zrotation
								JOINT Head
								{
									OFFSET 0.000000 7.031097 3.806800
									CHANNELS 3 Xrotation Yrotation Zrotation
									JOINT HeadTop_End
									{
										OFFSET 0.000000 24.646606 12.978600
										CHANNELS 3 Xrotation Yrotation Zrotation
										End Site
										{
											OFFSET 0 0 0
										}
									}
								}
							}
						}
						JOINT LeftShoulder_virtual
						{
							OFFSET 0.000000 0.000000 0.000000
							CHANNELS 3 Xrotation Yrotation Zrotation
							JOINT LeftShoulder
							{
								OFFSET 8.476499 7.247704 -3.868750
								CHANNELS 3 Xrotation Yrotation Zrotation
								JOINT LeftShoulder_split
								{
									OFFSET 8.476499 7.247704 -3.868750
									CHANNELS 3 Xrotation Yrotation Zrotation
									JOINT LeftArm
									{
										OFFSET 9.308998 -2.777710 0.208600
										CHANNELS 3 Xrotation Yrotation Zrotation
										JOINT LeftForeArm
										{
											OFFSET 29.972298 0.000000 0.000000
											CHANNELS 3 Xrotation Yrotation Zrotation
											JOINT LeftHand
											{
												OFFSET 26.026505 0.000000 0.000000
												CHANNELS 3 Xrotation Yrotation Zrotation
												End Site
												{
													OFFSET 0 0 0
												}
											}
										}
									}
								}
							}
						}
						JOINT RightShoulder_virtual
						{
							OFFSET 0.000000 0.000000 0.000000
							CHANNELS 3 Xrotation Yrotation Zrotation
							JOINT RightShoulder
							{
								OFFSET -7.570500 7.247704 -3.868750
								CHANNELS 3 Xrotation Yrotation Zrotation
								JOINT RightShoulder_split
								{
									OFFSET -7.570500 7.247704 -3.868750
									CHANNELS 3 Xrotation Yrotation Zrotation
									JOINT RightArm
									{
										OFFSET -9.308998 -2.777710 0.208500
										CHANNELS 3 Xrotation Yrotation Zrotation
										JOINT RightForeArm
										{
											OFFSET -29.972300 0.000000 0.000000
											CHANNELS 3 Xrotation Yrotation Zrotation
											JOINT RightHand
											{
												OFFSET -26.026505 0.000000 0.000000
												CHANNELS 3 Xrotation Yrotation Zrotation
												End Site
												{
													OFFSET 0 0 0
												}
											}
										}
									}
								}
							}
						}
					}
				}
			}
		}
	}
}
MOTION
Frames: 6
Frame Time: 0.03333333
2.178460 83.881126 1.186520 0.000000 0.000000 0.000000 -5.717371 -42.998326 -5.055229 -35.828225 -2.446251 19.557060 34.761302 -12.940052 -1.937804 0.208774 0.870691 -4.768261 0.311027 -4.784444 -3.002692 0.000000 0.000000 0.000000 -8.436542 -40.274989 -5.188224 2.494465 -14.610862 -19.060075 26.260496 -6.116027 -3.503883 -21.355797 -5.207360 27.873437 -1.630694 0.414318 3.324757 0.000000 0.000000 0.000000 -6.084133 -43.294940 -4.855453 6.780018 5.458213 -1.062799 10.989776 9.437645 -3.290836 0.447305 -3.275868 0.781021 0.000000 0.000000 0.000000 11.464346 9.096780 -3.416132 -4.799760 -2.573808 -0.234204 -3.693127 23.770440 -1.387545 0.000000 0.000000 0.000000 11.788550 9.210804 -3.090484 2.245734 0.312589 -7.284333 -3.587631 -2.229511 -0.670630 -13.170127 4.176299 -62.383171 10.908440 -46.895140 6.683382 0.000000 0.000000 0.000000 11.361644 9.182245 -3.121943 2.883075 6.907106 9.260709 -1.302494 3.054587 1.435465 -0.899018 -25.361143 62.667853 -2.896322 44.707140 5.368656 0.000000 0.000000 0.000000 
1.889639 83.806366 0.768169 0.000000 0.000000 0.000000 -5.646581 -43.265133 -4.823174 -36.442450 -2.381442 18.524906 34.058240 -12.033209 -1.862615 0.053009 1.034040 -3.658355 0.176199 -4.666815 -3.387144 0.000000 0.000000 0.000000 -8.297735 -40.014506 -5.079385 2.662954 -14.917594 -18.790648 27.027747 -6.912064 -3.376046 -22.511658 -5.831338 26.270767 0.032912 0.703008 3.154737 0.000000 0.000000 0.000000 -6.265213 -42.936608 -4.945895 6.967003 5.487610 -1.041808 11.054515 9.414947 -3.351823 0.842334 -3.202058 0.984461 0.000000 0.000000 0.000000 11.250568 9.031676 -3.408725 -5.003453 -2.288305 -0.561572 -3.517410 23.792862 -1.395633 0.000000 0.000000 0.000000 11.713187 9.126652 -3.191855 2.313298 0.325020 -7.154760 -3.400562 -2.816726 -0.531750 -13.201787 3.958404 -62.147352 10.921688 -47.720353 6.744363 0.000000 0.000000 0.000000 11.430781 9.174160 -3.113593 2.992731 6.921677 9.448877 -1.252655 3.068771 1.126723 -0.122249 -25.987996 62.566438 -2.497931 43.522689 5.218942 0.000000 0.000000 0.000000 
1.693649 83.636024 0.252132 0.000000 0.000000 0.000000 -5.471185 -42.810868 -4.503542 -37.505245 -2.552575 17.378231 33.740277 -11.359255 -1.412066 1.203326 0.389248 -4.248516 0.270925 -4.614035 -3.131421 0.000000 0.000000 0.000000 -8.071074 -39.644351 -4.884758 2.496886 -14.898183 -18.862042 28.867166 -7.664126 -3.136540 -22.751954 -6.169627 25.570922 -1.422195 0.983086 2.742961 0.000000 0.000000 0.000000 -6.292017 -42.412872 -4.890363 7.320401 5.394357 -0.842588 11.060181 9.158051 -3.385321 1.145892 -2.711440 0.822465 0.000000 0.000000 0.000000 11.015108 8.769748 -3.416870 -5.607163 -1.905026 -0.941756 -3.173856 23.694778 -1.431564 0.000000 0.000000 0.000000 11.676920 8.832864 -3.251667 2.371739 0.179676 -7.196127 -3.247633 -3.387984 -0.453874 -12.967970 3.740458 -61.434615 11.130621 -48.421322 6.749931 0.000000 0.000000 0.000000 11.454227 8.970356 -3.092458 3.055573 6.921712 9.667390 -1.666847 3.300461 0.824871 0.858306 -26.135914 62.471594 -1.574448 42.693358 4.828159 0.000000 0.000000 0.000000 
1.543408 83.448730 -0.197350 0.000000 0.000000 0.000000 -5.161493 -41.889700 -4.131076 -38.900403 -2.738970 16.268177 33.709391 -10.669165 -0.704849 3.106320 -0.838983 -5.948679 0.189787 -4.637975 -2.095149 0.000000 0.000000 0.000000 -7.684563 -39.127722 -4.575819 2.304468 -14.452831 -18.961920 30.795113 -8.369384 -2.958528 -22.219374 -6.235236 25.766006 -5.070769 1.253573 2.306450 0.000000 0.000000 0.000000 -6.138621 -41.779844 -4.657786 7.740706 5.222032 -0.552377 10.990515 8.718625 -3.397061 0.984877 -1.853386 0.582506 0.000000 0.000000 0.000000 10.802750 8.354589 -3.442429 -6.542702 -1.459162 -1.330545 -2.652452 23.382645 -1.433343 0.000000 0.000000 0.000000 11.687034 8.379209 -3.284998 2.417256 -0.076183 -7.434679 -3.330930 -3.775134 -0.515932 -12.440104 3.464552 -60.263770 11.450205 -48.756803 6.661839 0.000000 0.000000 0.000000 11.478229 8.598092 -3.077328 3.091495 6.894061 9.855951 -2.224602 3.683522 0.558274 1.971984 -25.424179 62.488506 -0.196353 42.338007 4.219766 0.000000 0.000000 0.000000 
1.487593 83.222931 -0.642338 0.000000 0.000000 0.000000 -4.624526 -40.653252 -3.678107 -40.571662 -2.586457 15.186910 33.946307 -9.493298 0.098997 4.921776 -2.090180 -7.625918 -0.208445 -4.763102 -0.443755 0.000000 0.000000 0.000000 -6.867138 -38.401311 -4.047927 2.469120 -13.695600 -18.563240 31.647422 -9.523101 -3.009475 -21.491325 -6.245503 26.066386 -8.007120 1.585714 1.997135 0.000000 0.000000 0.000000 -5.688335 -40.929253 -4.207072 8.098974 5.018943 -0.303152 10.893450 8.180789 -3.389767 0.781370 -1.010032 0.488431 0.000000 0.000000 0.000000 10.633645 7.862468 -3.484263 -7.765934 -1.009988 -1.705442 -2.023024 22.780742 -1.361906 0.000000 0.000000 0.000000 11.747066 7.852065 -3.311388 2.423315 -0.420766 -7.782160 -3.583863 -4.181949 -0.757031 -11.795010 2.968193 -58.647959 11.827589 -48.601396 6.491988 0.000000 0.000000 0.000000 11.542938 8.148317 -3.081763 3.091048 6.859930 9.976576 -2.564141 4.066068 0.381097 3.002541 -23.888727 62.617276 1.541601 42.120069 3.399976 0.000000 0.000000 0.000000 
1.471173 82.930130 -0.971004 0.000000 0.000000 0.000000 -3.761587 -39.245529 -3.054220 -42.234584 -1.746958 14.066563 34.579438 -7.510706 0.850779 5.932711 -2.796236 -8.413617 -0.793043 -4.991286 1.346719 0.000000 0.000000 0.000000 -5.574557 -37.244239 -3.271782 3.233260 -12.900120 -17.325436 30.591806 -11.301648 -3.332231 -21.017766 -6.337892 26.015497 -8.730700 2.025095 1.883268 0.000000 0.000000 0.000000 -4.830582 -39.705030 -3.480502 8.290481 4.822793 -0.233095 10.798222 7.628026 -3.380499 0.635777 -0.518843 0.341837 0.000000 0.000000 0.000000 10.535175 7.376019 -3.518992 -9.269745 -0.603885 -2.053067 -1.390084 21.890973 -1.188830 0.000000 0.000000 0.000000 11.815335 7.339230 -3.340921 2.372496 -0.858773 -8.125534 -3.781409 -4.599191 -1.134579 -11.328077 2.142835 -56.676073 12.250692 -47.832119 6.277294 0.000000 0.000000 0.000000 11.675105 7.695928 -3.098111 3.038000 6.849359 10.002789 -2.737641 4.088341 0.338025 3.574473 -21.658917 62.693296 3.433250 41.653601 2.411348 0.000000 0.000000 0.000000 
